# xmcd
#
# Track frame offsets: 
#        150
#        13528
#        22474
#        35730
#        46024
#        63453
#        78207
#        90162
#        104374
#        115923
#        143196
#        161848
#        180666
#
# Disc length: 2685 seconds
#
# Revision: 0
# Processed by: cddbd v1.5.2PL0 Copyright (c) Steve Scherf et al.
# Submitted via: ExactAudioCopyFreeDBPlugin 1.0
#
DISCID=a50a7b0d
DTITLE=Amos Morris - By Request
DYEAR=2012
DGENRE=Country
TTITLE0=She thinks i still care
TTITLE1=Gotta travel on
TTITLE2=Baby blue
TTITLE3=I'll hold you in my heart
TTITLE4=Mansion on the hill
TTITLE5=There goes my everything
TTITLE6=The wonder of you
TTITLE7=Koori Rose
TTITLE8=I'll leave this world loving you
TTITLE9=The band played walzing Matilda
TTITLE10=Maggie
TTITLE11=The green green gras of home
TTITLE12=Amazing graze
EXTD=
EXTT0=
EXTT1=
EXTT2=
EXTT3=
EXTT4=
EXTT5=
EXTT6=
EXTT7=
EXTT8=
EXTT9=
EXTT10=
EXTT11=
EXTT12=
PLAYORDER=
